<svg width="359" height="103" viewBox="0 0 359 103" fill="none" xmlns="http://www.w3.org/2000/svg">
    <path
        d="M61.1415 78V22.104L59.1015 11.904L61.1415 5.784H79.5015V22.308L78.4815 33.63L79.5015 34.14C80.3175 32.916 81.8135 31.726 83.9895 30.57C86.2335 29.346 89.1575 28.734 92.7615 28.734C98.8815 28.734 103.471 30.468 106.531 33.936C109.591 37.404 111.121 42.266 111.121 48.522V61.782L113.263 71.778L111.121 78H92.7615V51.174C92.7615 48.59 92.1835 46.618 91.0275 45.258C89.9395 43.83 88.2055 43.116 85.8255 43.116L79.5015 46.074V78H61.1415Z"
        fill="#02A4D3" />
    <path
        d="M136.51 79.02C133.586 79.02 130.866 78.612 128.35 77.796C125.902 76.912 123.93 75.416 122.434 73.308C120.938 71.2 120.19 68.276 120.19 64.536C120.19 61.136 121.04 58.314 122.74 56.07C124.44 53.826 126.752 52.16 129.676 51.072C132.6 49.984 135.898 49.44 139.57 49.44C143.106 49.44 145.758 49.848 147.526 50.664C149.294 51.412 150.824 52.194 152.116 53.01L152.83 52.398C152.83 50.358 152.66 48.658 152.32 47.298C151.98 45.938 151.198 44.918 149.974 44.238C148.75 43.49 146.846 43.116 144.262 43.116C141.746 43.116 139.06 43.354 136.204 43.83C133.416 44.238 130.832 44.782 128.452 45.462C126.14 46.074 124.406 46.686 123.25 47.298V31.998C125.358 31.25 128.35 30.57 132.226 29.958C136.17 29.278 140.998 28.938 146.71 28.938C152.83 28.938 157.658 29.72 161.194 31.284C164.798 32.78 167.382 34.99 168.946 37.914C170.51 40.77 171.292 44.204 171.292 48.216V61.782L173.332 72.084L171.292 78.102H153.85V73.104L152.83 72.594C152.286 73.138 151.334 73.92 149.974 74.94C148.614 75.96 146.812 76.912 144.568 77.796C142.324 78.612 139.638 79.02 136.51 79.02ZM145.18 65.658C147.016 65.658 148.58 65.488 149.872 65.148C151.232 64.808 152.218 64.502 152.83 64.23V62.292C152.83 61.408 152.184 60.558 150.892 59.742C149.668 58.926 147.73 58.518 145.078 58.518C141.406 58.518 139.57 59.81 139.57 62.394C139.57 63.482 139.978 64.298 140.794 64.842C141.61 65.386 143.072 65.658 145.18 65.658Z"
        fill="black" />
    <path
        d="M185.656 78V46.074L183.514 35.874L185.656 29.754H199.528L201.568 32.1C201.568 32.1 202.044 31.828 202.996 31.284C203.948 30.672 205.274 30.094 206.974 29.55C208.742 29.006 210.782 28.734 213.094 28.734C214.454 28.734 215.814 28.836 217.174 29.04C218.534 29.244 219.588 29.516 220.336 29.856L226.966 35.466L220.336 48.522L206.872 42.912L203.812 43.932V78H185.656Z"
        fill="black" />
    <path
        d="M244.287 26.898L231.333 13.842L244.287 0.888L257.241 13.842L244.287 26.898ZM235.107 78V44.238L232.965 36.078L235.005 29.856H253.467V78H235.107Z"
        fill="black" />
    <path
        d="M284.577 79.02C279.953 79.02 276.246 77.66 273.458 74.94C270.67 72.22 269.276 68.786 269.276 64.638V42.402H261.831V32.712L268.257 27.714L275.499 15.066H287.535V29.856H301.815V43.116H287.535V64.944L301.815 64.842V75.96C301.815 75.96 300.999 76.232 299.367 76.776C297.803 77.252 295.729 77.728 293.145 78.204C290.561 78.748 287.705 79.02 284.577 79.02Z"
        fill="black" />
    <path
        d="M317.18 102.786L302.798 97.686L306.878 82.488L321.158 86.568C324.082 86.568 326.19 85.786 327.482 84.222C328.842 82.726 329.862 80.618 330.542 77.898H320.036L308.816 43.014L306.878 29.754H326.258L331.868 63.414H333.908L339.518 29.754H358.898C358.898 29.754 358.66 30.842 358.184 33.018C357.776 35.126 357.164 37.948 356.348 41.484C355.6 45.02 354.682 48.93 353.594 53.214C352.574 57.43 351.486 61.714 350.33 66.066C349.174 70.35 347.984 74.294 346.76 77.898C344.924 83.542 342.714 88.2 340.13 91.872C337.614 95.544 334.52 98.264 330.848 100.032C327.176 101.868 322.62 102.786 317.18 102.786Z"
        fill="black" />
    <path
        d="M25.8872 79.02C21.1952 79.02 16.9452 78.238 13.1372 76.674C9.39719 75.11 6.40519 72.492 4.16119 68.82C1.98519 65.148 0.897186 60.184 0.897186 53.928C0.897186 47.604 2.08719 42.64 4.46719 39.036C6.84719 35.364 9.94119 32.746 13.7492 31.182C17.5572 29.618 21.6032 28.836 25.8872 28.836C29.6272 28.836 32.8232 28.972 35.4752 29.244C38.1952 29.516 39.9972 29.754 40.8812 29.958L48.8372 38.934L40.6772 50.052L28.9472 43.116C23.0992 43.116 20.1752 46.72 20.1752 53.928C20.1752 57.668 21.0592 60.422 22.8272 62.19C24.5952 63.89 27.3152 64.74 30.9872 64.74C34.6592 64.74 37.9572 64.23 40.8812 63.21C43.8052 62.19 46.0832 61.238 47.7152 60.354V75.042C45.6072 76.13 42.8192 77.082 39.3512 77.898C35.9512 78.646 31.4632 79.02 25.8872 79.02Z"
        fill="black" />
    <path d="M61.1951 78L61.0931 22.104L59.0531 11.904L61.1951 5.784H79.5551V78H61.1951Z"
        fill="black" />
</svg>